<?xml version="1.0" ?><svg id="Layer_1" style="enable-background:new 0 0 24 24;" version="1.1" viewBox="0 0 24 24" xml:space="preserve" xmlns="http://www.w3.org/2000/svg" xmlns:xlink="http://www.w3.org/1999/xlink"><title/><g id="Star_1"><g><polygon points="11.989,20.21 19.309,23.5 17.739,15.29 23.489,9.26 15.649,8.17 11.989,0.5 8.329,8.17     0.489,9.26 6.239,15.29 4.669,23.5   " style="fill:#FFCF01;"/><polygon points="11.989,0.5 8.329,8.17 11.989,13.28   " style="opacity:0.2;fill:#FFFFFF;enable-background:new    ;"/><polygon points="11.989,0.5 8.329,8.17 11.989,13.28   " style="opacity:0.2;fill:#FFFFFF;enable-background:new    ;"/><polygon points="11.989,0.5 15.649,8.17 11.989,13.28   " style="opacity:0.1;enable-background:new    ;"/><polygon points="23.489,9.26 11.989,13.28 17.739,15.29   " style="opacity:0.1;enable-background:new    ;"/><polygon points="0.489,9.26 11.989,13.28 6.239,15.29   " style="opacity:0.1;enable-background:new    ;"/><polygon points="4.669,23.5 11.989,13.28 11.989,20.21   " style="opacity:0.1;enable-background:new    ;"/><polygon points="4.669,23.5 11.989,13.28 11.989,20.21   " style="opacity:0.1;enable-background:new    ;"/><polygon points="17.739,15.29 11.989,13.28 19.309,23.5   " style="opacity:0.1;enable-background:new    ;"/><polygon points="17.739,15.29 11.989,13.28 19.309,23.5   " style="opacity:0.1;enable-background:new    ;"/><path d="M23.989,9.1c-0.061-0.176-0.216-0.303-0.4-0.33l-7.6-1.06l-3.55-7.43l0,0    c-0.125-0.24-0.42-0.334-0.661-0.209c-0.09,0.047-0.163,0.12-0.209,0.209l0,0l-3.58,7.43l-7.57,1.06    C0.145,8.81-0.044,9.063-0.004,9.337C0.011,9.439,0.057,9.535,0.129,9.61l5.57,5.84l-1.52,8c-0.053,0.271,0.124,0.534,0.395,0.587    c0.103,0.02,0.21,0.007,0.305-0.037l7.11-3.24l7.11,3.24c0.251,0.116,0.548,0.006,0.663-0.245    c0.044-0.095,0.057-0.202,0.037-0.305l-1.52-8l5.57-5.84C23.989,9.481,24.043,9.283,23.989,9.1z M8.099,8.7l2.56,3.58l-8.05-2.81    L8.099,8.7z M12.489,2.7l2.58,5.41l-2.58,3.6V2.7z M11.489,11.7l-2.58-3.58l2.58-5.41V11.7z M11.489,19.87l-5.33,2.42l5.33-7.45    V19.87z M12.489,14.81l5.33,7.45l-5.33-2.37V14.81z M15.879,8.7l5.49,0.77l-8.06,2.81L15.879,8.7z M2.289,10.42l8.19,2.86    l-4.1,1.43L2.289,10.42z M6.679,15.66l4-1.39l-5.09,7.09L6.679,15.66z M18.389,21.36l-5.07-7.09l4,1.39L18.389,21.36z     M17.599,14.71l-4.09-1.43l8.19-2.86L17.599,14.71z" style="fill:#303C42;"/><linearGradient gradientTransform="matrix(1 0 0 -1 0 24)" gradientUnits="userSpaceOnUse" id="SVGID_1_" x1="0.379" x2="22.2098" y1="15.6785" y2="5.4888"><stop offset="0" style="stop-color:#FFFFFF;stop-opacity:0.2"/><stop offset="1" style="stop-color:#FFFFFF;stop-opacity:0"/></linearGradient><path d="M23.989,9.1c-0.061-0.176-0.216-0.303-0.4-0.33l-7.6-1.06l-3.55-7.43    c-0.144-0.249-0.462-0.333-0.711-0.189c-0.079,0.046-0.144,0.111-0.189,0.189l-3.55,7.43l-7.57,1.06    C0.145,8.81-0.044,9.063-0.004,9.337C0.011,9.439,0.057,9.535,0.129,9.61l5.57,5.84l-1.52,8c-0.053,0.271,0.124,0.534,0.395,0.587    c0.103,0.02,0.21,0.007,0.305-0.037l7.11-3.24l7.11,3.24c0.251,0.116,0.548,0.006,0.663-0.245    c0.044-0.095,0.057-0.202,0.037-0.305l-1.52-8l5.57-5.84C23.989,9.481,24.043,9.283,23.989,9.1z" style="fill:url(#SVGID_1_);"/></g></g></svg>